<svg xmlns="http://www.w3.org/2000/svg" viewBox="0 0 64 64" width="64" height="64">
  <rect width="64" height="64" rx="12" fill="#3B0710"/>
  <g stroke="#E1B96C" stroke-width="2.2" fill="none" stroke-linecap="round">
    <rect x="18" y="18" width="28" height="28" rx="4"/>
    <path d="M24 18v-6M32 18v-6M40 18v-6M24 46v6M32 46v6M40 46v6M18 24h-6M18 32h-6M18 40h-6M46 24h6M46 32h6M46 40h6"/>
  </g>
  <path d="M32 40c-6-4-9-7-9-11a4.3 4.3 0 0 1 8-2 4.3 4.3 0 0 1 8 2c0 4-3 7-7 11z" fill="#E89A3A" stroke="#E1B96C" stroke-width="1.4"/>
</svg>
